<?xml version="1.0" encoding="UTF-8" standalone="no"?>
<svg
   width="207.23199"
   height="207.23199"
   version="1.1"
   id="svg6"
   xmlns="http://www.w3.org/2000/svg"
   xmlns:svg="http://www.w3.org/2000/svg">
  <defs
     id="defs6" />
  <g
     id="g8"
     transform="translate(-165.57358,-138.68649)">
    <circle
       style="fill:#e2e8f0;fill-opacity:1;stroke-width:1.25549"
       id="path7"
       cx="269.18958"
       cy="242.30249"
       r="103.616" />
    <g
       id="g7"
       transform="matrix(0.4554904,0,0,0.4554904,144.27554,121.6657)">
      <path
         d="m 141.99872,338.28772 255.93878,0.0799 c 13.11187,-0.0146 16.33048,-2.46379 16.58205,11.89187 0.12782,7.29254 0.0794,14.58691 0.0787,21.88006 l 0.002,19.88609 c 0.005,6.91449 1.85846,14.91658 -7.67627,16.07989 -3.30764,0.32003 -6.90448,0.0513 -10.23714,0.0472 l -234.0343,-0.0114 c -6.64395,-3.7e-4 -13.34526,0.17047 -19.98371,-0.084 -9.90583,-0.37976 -8.47563,-9.97837 -8.45733,-16.95363 l 0.005,-35.28084 c -0.002,-6.90571 -1.7731,-16.6535 7.7825,-17.53517 z m 203.09775,54.53298 c 8.30479,-0.18427 16.63215,-0.058 24.93998,-0.0555 3.96599,0.001 10.95346,1.47901 13.62043,-2.13309 0.4686,-7.21993 0.11227,-14.69552 0.11593,-21.93803 l 0.005,-12.66615 c 0.008,-9.83932 1.46559,-10.18649 -8.95765,-10.18527 l -23.06619,-0.011 c -3.39306,-6.1e-4 -15.30568,-1.75845 -15.8963,3.28751 -0.70961,6.06735 -0.14034,41.24751 0.56744,42.65147 2.05316,1.76823 6.08932,1.12696 8.67087,1.05008 z M 253.6926,371.47025 c 19.55904,-0.34535 39.16385,0.38439 58.71496,-0.14522 -0.15986,-2.41986 -0.14216,-4.62496 0.1623,-7.03506 -10.74539,-0.25077 -21.52251,-0.0738 -32.27279,-0.0744 l -68.57197,-0.005 -36.76839,0.01 c -7.09851,6.1e-4 -14.21411,-0.10129 -21.31018,0.0616 -0.0885,2.3741 -0.12752,4.74516 -0.14888,7.12048 3.20513,0.17877 6.42125,0.0189 9.63004,0.0128 l 64.35582,-0.005 c 8.73128,0 17.48147,-0.13606 26.20909,0.061 z"
         id="path1"
         style="fill:#0f172a;fill-opacity:1;stroke-width:0.610152" />
      <path
         d="m 376.79084,352.7886 c 0.34351,11.0584 0.0354,22.16684 0.12874,33.23439 -11.3104,-0.0933 -22.74038,0.39599 -34.03247,-0.14156 0.003,-11.0523 0.17512,-22.13754 -0.11593,-33.18496 11.31528,0.33375 22.69645,0.0927 34.01966,0.0921 z"
         id="path2"
         style="fill:#0284c7;fill-opacity:1;stroke-width:0.610152" />
      <path
         d="m 247.12736,236.77301 c 13.10546,0.24528 26.2457,0.0586 39.35422,0.0592 l 102.70389,-0.002 c 5.46331,-0.004 11.09379,-0.31179 16.53452,0.12325 8.26714,0.66079 6.96178,9.30848 6.95769,15.05917 l 4.9e-4,44.1732 c 0,7.43653 2.64287,18.69629 -7.21566,19.62677 -3.58709,0.19708 -7.34441,-0.0934 -10.95529,-0.0982 l -236.64881,-0.006 c -5.35225,6.1e-4 -10.78322,0.20318 -16.12694,-0.01 -9.23648,-0.36792 -7.52684,-10.38906 -7.51646,-16.36734 l 0.007,-56.91806 c -0.002,-8.01679 -3.26554,-24.66663 7.09302,-26.05167 l 89.37695,-0.004 c 18.00559,-0.006 16.59553,1.19223 16.43506,20.41569 z m 133.06386,61.33374 c 1.53026,-0.37159 2.29783,-0.90913 3.40404,-2.01045 0.36609,-2.43939 0.19708,-5.04779 0.1928,-7.51342 l -0.0268,-24.4848 c 0.014,-3.61638 1.53819,-12.53985 -3.58526,-13.12194 -11.26036,-1.27888 -28.52767,0.20379 -40.55743,-0.0964 -5.3248,1.14098 -3.84824,7.58053 -3.83176,11.71858 l -0.007,25.88877 c -0.004,3.23136 -1.38444,9.51227 3.27957,9.69898 12.77537,0.51192 28.38611,0.31118 41.1322,-0.0793 z m -110.90313,-11.6771 c 14.42096,-0.35023 28.86692,0.0976 43.29153,-0.10189 -0.32094,-2.63769 -0.33253,-4.80007 0.0171,-7.43288 l -115.86427,0.0281 c -14.4118,-0.005 -28.8718,0.24467 -43.27689,-0.0574 0.0464,2.50773 0.0738,5.0124 0.0665,7.52074 l 71.07665,-0.0348 c 14.87856,6.1e-4 29.82119,-0.28494 44.68938,0.0781 z m 6.31996,-30.50578 c 11.02607,0.19829 25.6746,0.78038 36.53959,-0.144 0.0683,-2.4278 0.0787,-4.82265 -0.0494,-7.25044 l -122.22999,0.0525 c -12.1164,-0.008 -24.26087,0.16657 -36.37301,-0.0519 0.009,2.46196 0.0366,4.92637 -0.0177,7.38833 7.65863,0.15803 15.33008,0.0696 22.99054,0.0708 h 77.04333 c 7.36209,-0.001 14.737,0.0946 22.09666,-0.0653 z"
         id="path3"
         style="fill:#0f172a;fill-opacity:1;stroke-width:0.610152" />
      <path
         d="m 376.82073,257.78666 c 0.25871,11.08281 -0.39537,22.25226 0.19159,33.31676 l -20.67013,0.0116 c -4.48157,10e-4 -8.99303,0.11044 -13.4685,-0.14399 l -0.0177,-33.20388 z"
         id="path4"
         style="fill:#0284c7;fill-opacity:1;stroke-width:0.610152" />
      <path
         d="m 136.11136,124.8607 c 4.51086,-4.98006 13.72172,-3.05747 20.15211,-3.05625 l 234.19112,-0.003 c 4.43703,-0.007 8.98632,-0.25993 13.40566,0.0238 11.62401,0.74622 8.81023,20.20398 8.80785,28.12864 l 0.0117,50.83057 c 0.0613,15.81637 -1.2751,14.87429 -17.95661,14.87246 l -26.59105,0.0348 c -7.90513,-0.14156 -15.82796,-0.0409 -23.73492,-0.0415 l -60.45878,0.01 c -15.61197,0.0519 -16.083,-2.05194 -16.20869,-17.41741 l 28.70034,-0.014 c 5.2406,-6.1e-4 10.53367,0.16718 15.76207,-0.18122 l 0.13972,-6.92828 c -5.53164,-0.11409 -11.09013,0.0128 -16.62421,0.0378 l -138.06954,0.67056 c -18.70179,0.26786 -23.43657,4.57492 -23.41948,-17.18311 l -0.0104,-35.85194 c -0.005,-4.55113 -0.84323,-9.97111 1.90306,-13.93161 z m 226.69479,72.52454 10.217,6.1e-4 c 14.46427,0.0488 10.74844,-4.44923 10.75149,-17.85489 0.002,-8.01008 0.25993,-16.10741 -0.0952,-24.10346 -0.14644,-3.29909 -0.25322,-5.47184 -3.9422,-5.938 -6.40721,-0.80906 -16.29046,-0.0836 -23.03081,-0.18549 l -10.89854,0.0207 c -4.72014,-0.0104 -10.16819,-1.40213 -10.12792,5.18385 l 0.11532,24.68738 c -0.002,2.95741 -0.87435,15.50946 0.9616,17.47781 1.11597,1.19651 22.6635,0.6791 26.04924,0.71144 z M 167.55312,168.59398 c 11.29819,-0.27823 22.64642,-0.0744 33.9501,-0.0744 l 71.7228,0.002 c 12.96635,6.1e-4 25.97418,0.21172 38.93626,-0.0665 0.0433,-2.35335 0.0811,-4.70244 0.039,-7.05702 -4.74149,0.0641 -9.48055,0.047 -14.22204,0.0244 l -126.24113,0.0281 c -6.01916,0.002 -12.18414,0.2648 -18.18437,-0.18244 l -0.0336,7.39993 c 4.65851,-0.26054 9.3695,-0.18671 14.03289,-0.0738 z"
         id="path5"
         style="fill:#0f172a;fill-opacity:1;stroke-width:0.610152" />
      <path
         d="m 376.37471,156.25975 c 0.53877,11.36714 -0.2343,22.78614 0.31972,34.1606 -11.25609,-0.32521 -22.57014,-0.058 -33.83539,-0.0946 l 0.0256,-17.96289 c 0.002,-5.4212 0.0732,-10.84973 -0.16901,-16.26727 4.30828,0.33802 8.69589,0.18854 13.0176,0.18793 z"
         id="path6"
         style="fill:#0284c7;fill-opacity:1;stroke-width:0.610152" />
    </g>
  </g>
</svg>
